# xmcd
#
# Track frame offsets:
#	150
#	15929
#	17690
#	35430
#	54451
#	71523
#	78768
#	100390
#	120008
#	125936
#	144718
#	166733
#	180219
#	185314
#	207131
#
# Disc length: 3085 seconds
#
# Revision: 1
# Processed by: cddbd v1.5.1PL2 Copyright (c) Steve Scherf et al.
# Submitted via: audiograbber 1.83.01
#
DISCID=b40c0b0f
DTITLE=Lisatin - Ein Weg voll Sterne
DYEAR=2005
DGENRE=Ballad
TTITLE0=Lisatin - Nirgendwo
TTITLE1=Lisatin - Und noch weiter
TTITLE2=Lisatin - Zusammen allein
TTITLE3=Lisatin - Mélodie
TTITLE4=Lisatin - So still
TTITLE5=Lisatin - Davongelaufen
TTITLE6=Lisatin - Gestern so klein
TTITLE7=Lisatin - Gemalte Farben
TTITLE8=Lisatin - Vor dem Weg
TTITLE9=Lisatin - Ertränktes Sehnen
TTITLE10=Lisatin - Moment
TTITLE11=Lisatin - Ein anderer Tag
TTITLE12=Lisatin - Epilog
TTITLE13=DJ Destroyal Remix - Gestern so klein
TTITLE14=ORGANIC - So still
EXTD=www.lisatin.de\npost@lisatin.de
EXTT0=
EXTT1=
EXTT2=
EXTT3=
EXTT4=
EXTT5=
EXTT6=
EXTT7=
EXTT8=
EXTT9=
EXTT10=
EXTT11=
EXTT12=
EXTT13=Bonus Track
EXTT14=Bonus Track
PLAYORDER=
